<?xml version="1.0" encoding="UTF-8" ?>
<!DOCTYPE svg PUBLIC "-//W3C//DTD SVG 1.1//EN" "http://www.w3.org/Graphics/SVG/1.1/DTD/svg11.dtd">
<svg width="512pt" height="512pt" viewBox="0 0 512 512" version="1.1" xmlns="http://www.w3.org/2000/svg">
<g id="#fdfefdff">
<path fill="#fdfefd" opacity="1.00" d=" M 316.98 154.07 C 326.12 154.19 335.21 155.27 344.34 155.75 C 354.68 156.85 365.60 156.97 374.96 162.07 C 382.65 166.49 389.18 173.39 392.18 181.84 C 398.01 197.55 398.78 214.47 400.02 231.01 C 400.71 239.32 400.44 247.67 400.53 256.01 C 400.60 278.57 400.25 301.47 394.51 323.44 C 392.05 333.20 386.90 342.64 378.39 348.37 C 372.32 352.39 365.24 354.82 357.98 355.41 C 346.86 356.37 335.79 358.53 324.60 358.06 C 332.28 351.08 338.84 342.88 343.63 333.66 C 349.35 323.42 351.87 311.81 353.55 300.31 C 355.41 287.02 353.71 273.51 350.43 260.59 C 347.36 248.78 341.66 237.77 339.43 225.72 C 337.32 215.34 337.54 204.68 335.70 194.27 C 333.36 179.47 327.55 164.93 316.98 154.07 Z" />
</g>
<g id="#fd0a01ff">
<path fill="#fd0a01" opacity="1.00" d=" M 118.20 61.33 C 131.74 57.31 145.97 56.73 160.00 56.63 C 219.00 56.65 278.00 56.64 337.00 56.65 C 350.96 56.71 365.01 56.24 378.87 58.24 C 390.32 60.09 401.85 63.05 411.84 69.16 C 425.71 77.58 437.65 89.52 444.86 104.16 C 450.64 114.75 453.31 126.72 454.05 138.69 C 453.63 146.46 453.86 154.23 454.03 162.01 C 454.03 216.00 453.75 270.00 453.95 323.99 C 454.26 341.72 453.42 359.45 453.95 377.17 C 453.05 391.46 447.54 405.02 439.59 416.81 C 430.46 430.32 417.21 440.82 402.31 447.33 C 393.78 451.19 384.45 452.69 375.26 454.06 C 352.52 454.77 329.75 454.24 307.00 454.40 C 274.00 454.40 241.00 454.43 208.00 454.41 C 184.59 454.23 161.16 454.80 137.75 454.03 C 135.50 453.77 133.27 453.43 131.03 453.12 C 121.65 451.24 112.24 448.80 103.77 444.24 C 93.90 438.96 84.85 431.99 77.56 423.46 C 66.27 409.54 59.36 392.17 57.90 374.31 C 58.59 365.22 58.16 356.10 58.06 347.00 C 58.05 290.33 58.07 233.67 57.95 177.00 C 57.67 164.89 58.52 152.79 57.89 140.69 C 58.99 114.99 71.46 89.64 92.48 74.50 C 100.44 69.06 108.89 64.05 118.20 61.33 M 220.07 137.19 C 211.17 142.01 202.28 147.33 195.39 154.88 C 186.97 153.70 178.53 155.44 170.09 155.55 C 158.74 156.52 146.82 156.89 136.60 162.53 C 125.33 167.98 119.32 180.14 116.90 191.90 C 112.04 214.90 111.35 238.56 111.51 261.99 C 111.63 281.21 112.51 300.58 116.63 319.41 C 118.66 327.47 121.12 335.84 126.84 342.13 C 133.71 350.24 144.22 354.34 154.57 355.51 C 165.38 356.74 176.21 358.20 187.11 358.17 C 188.92 359.91 190.80 361.62 192.96 362.94 C 195.62 366.16 199.39 368.03 203.02 369.92 C 214.66 376.38 227.52 380.74 240.75 382.25 C 248.15 383.10 255.62 384.27 263.07 383.22 C 276.54 381.91 290.17 379.56 302.34 373.35 C 306.26 371.42 310.31 369.48 313.30 366.18 C 317.41 364.01 321.17 361.19 324.60 358.06 C 335.79 358.53 346.86 356.37 357.98 355.41 C 365.24 354.82 372.32 352.39 378.39 348.37 C 386.90 342.64 392.05 333.20 394.51 323.44 C 400.25 301.47 400.60 278.57 400.53 256.01 C 400.44 247.67 400.71 239.32 400.02 231.01 C 398.78 214.47 398.01 197.55 392.18 181.84 C 389.18 173.39 382.65 166.49 374.96 162.07 C 365.60 156.97 354.68 156.85 344.34 155.75 C 335.21 155.27 326.12 154.19 316.98 154.07 C 304.76 142.15 289.03 133.28 271.90 131.21 C 254.55 129.10 236.09 129.37 220.07 137.19 Z" />
</g>
<g id="#74481eff">
<path fill="#74481e" opacity="1.00" d=" M 220.07 137.19 C 236.09 129.37 254.55 129.10 271.90 131.21 C 289.03 133.28 304.76 142.15 316.98 154.07 C 327.55 164.93 333.36 179.47 335.70 194.27 C 337.54 204.68 337.32 215.34 339.43 225.72 C 341.66 237.77 347.36 248.78 350.43 260.59 C 353.71 273.51 355.41 287.02 353.55 300.31 C 351.87 311.81 349.35 323.42 343.63 333.66 C 338.84 342.88 332.28 351.08 324.60 358.06 C 321.17 361.19 317.41 364.01 313.30 366.18 C 306.94 369.18 300.96 372.98 294.34 375.41 C 278.65 381.43 261.49 382.86 244.84 381.51 C 230.28 380.36 216.03 375.86 203.34 368.65 C 199.92 366.68 196.40 364.88 192.96 362.94 C 190.80 361.62 188.92 359.91 187.11 358.17 C 174.16 346.35 164.90 330.65 160.58 313.68 C 157.99 302.66 157.13 291.22 158.32 279.96 C 159.59 264.07 165.79 249.23 170.12 234.05 C 174.26 219.60 174.33 204.39 177.79 189.80 C 180.39 176.84 187.07 165.02 195.39 154.88 C 202.28 147.33 211.17 142.01 220.07 137.19 M 236.59 140.58 C 222.01 144.09 208.50 152.33 199.19 164.16 C 190.89 173.86 186.65 186.44 184.88 198.90 C 184.01 201.54 183.34 204.26 183.15 207.05 C 182.45 215.62 181.40 224.19 179.41 232.57 C 178.92 234.88 178.27 237.20 178.22 239.58 C 173.32 246.58 172.90 255.43 170.29 263.35 C 164.89 280.31 165.13 298.81 170.04 315.85 C 172.20 323.61 176.49 330.49 180.52 337.39 C 184.43 344.24 190.61 349.38 196.60 354.34 C 207.58 363.47 221.06 369.48 235.12 371.86 C 245.23 373.60 255.56 375.03 265.81 373.79 C 277.85 372.16 289.84 369.27 300.76 363.82 C 311.55 359.00 320.26 350.71 328.12 342.08 C 333.92 334.99 337.97 326.61 340.99 318.01 C 342.82 312.68 345.16 307.28 344.61 301.51 C 346.27 296.54 345.96 291.17 346.04 286.00 C 346.10 275.10 342.89 264.56 339.71 254.24 C 337.43 246.72 333.75 239.66 332.08 231.94 C 329.18 219.08 329.76 205.74 327.09 192.84 C 326.84 192.06 326.52 191.31 326.12 190.60 C 323.03 171.83 310.03 155.28 293.03 146.94 C 275.82 138.23 255.32 135.46 236.59 140.58 Z" />
</g>
<g id="#ebc68cff">
<path fill="#ebc68c" opacity="1.00" d=" M 236.59 140.58 C 255.32 135.46 275.82 138.23 293.03 146.94 C 310.03 155.28 323.03 171.83 326.12 190.60 C 324.41 187.68 322.42 184.91 321.13 181.76 C 316.14 170.82 307.18 162.01 296.67 156.32 C 277.14 145.52 252.88 143.14 231.84 150.86 C 224.33 153.39 217.37 157.35 210.97 162.00 C 203.61 167.37 198.58 175.14 193.63 182.63 C 189.79 188.35 187.84 195.01 184.98 201.21 C 184.95 200.63 184.90 199.48 184.88 198.90 C 186.65 186.44 190.89 173.86 199.19 164.16 C 208.50 152.33 222.01 144.09 236.59 140.58 Z" />
</g>
<g id="#ce1814ff">
<path fill="#ce1814" opacity="1.00" d=" M 454.05 138.69 C 455.73 151.39 455.39 164.22 455.42 177.00 C 455.41 233.00 455.42 289.00 455.43 345.00 C 455.38 355.73 455.59 366.53 453.95 377.17 C 453.42 359.45 454.26 341.72 453.95 323.99 C 453.75 270.00 454.03 216.00 454.03 162.01 C 453.86 154.23 453.63 146.46 454.05 138.69 Z" />
</g>
<g id="#cf1712ff">
<path fill="#cf1712" opacity="1.00" d=" M 56.58 167.00 C 56.53 158.21 56.91 149.42 57.89 140.69 C 58.52 152.79 57.67 164.89 57.95 177.00 C 58.07 233.67 58.05 290.33 58.06 347.00 C 58.16 356.10 58.59 365.22 57.90 374.31 C 56.89 365.58 56.57 356.78 56.63 348.00 C 56.61 287.66 56.62 227.33 56.58 167.00 Z" />
</g>
<g id="#c89555ff">
<path fill="#c89555" opacity="1.00" d=" M 231.84 150.86 C 252.88 143.14 277.14 145.52 296.67 156.32 C 307.18 162.01 316.14 170.82 321.13 181.76 C 322.42 184.91 324.41 187.68 326.12 190.60 C 326.52 191.31 326.84 192.06 327.09 192.84 C 329.76 205.74 329.18 219.08 332.08 231.94 C 333.75 239.66 337.43 246.72 339.71 254.24 C 342.89 264.56 346.10 275.10 346.04 286.00 C 345.96 291.17 346.27 296.54 344.61 301.51 C 338.98 311.23 333.09 321.09 324.56 328.58 C 314.25 337.54 301.37 343.16 288.13 346.15 C 278.00 348.16 267.58 347.68 257.37 346.62 C 243.12 345.12 229.83 338.85 218.03 330.95 C 208.41 324.64 201.61 315.15 195.18 305.81 C 189.15 296.00 184.66 285.23 182.00 274.02 C 179.37 262.73 179.30 251.08 178.22 239.58 C 178.27 237.20 178.92 234.88 179.41 232.57 C 181.40 224.19 182.45 215.62 183.15 207.05 C 183.34 204.26 184.01 201.54 184.88 198.90 C 184.90 199.48 184.95 200.63 184.98 201.21 C 187.84 195.01 189.79 188.35 193.63 182.63 C 198.58 175.14 203.61 167.37 210.97 162.00 C 217.37 157.35 224.33 153.39 231.84 150.86 M 261.05 152.10 C 260.71 153.96 259.17 156.37 261.12 157.85 C 262.21 159.25 264.12 159.02 265.68 158.86 C 267.92 157.05 266.67 154.25 265.91 152.06 C 264.28 152.08 262.67 152.09 261.05 152.10 M 221.39 169.36 C 218.19 170.48 214.56 173.11 215.01 176.93 C 214.86 179.93 218.88 181.31 221.31 180.32 C 224.58 179.11 228.83 176.99 228.94 173.00 C 229.02 169.31 224.19 168.29 221.39 169.36 M 294.41 169.36 C 293.00 169.99 291.71 171.32 291.97 172.99 C 292.11 177.59 299.02 180.26 301.92 176.68 C 303.76 171.99 298.56 168.64 294.41 169.36 M 260.37 182.23 C 257.55 183.68 259.89 188.40 262.70 187.75 C 264.31 186.86 265.36 185.19 264.83 183.32 C 263.86 181.79 261.91 181.90 260.37 182.23 M 286.81 226.83 C 289.63 225.01 292.45 222.58 295.99 222.61 C 299.56 222.59 302.42 225.14 305.79 225.93 C 310.95 218.83 304.47 207.82 295.87 208.37 C 287.14 208.56 282.31 219.79 286.81 226.83 M 219.33 226.81 C 222.21 224.84 225.25 222.25 229.00 222.66 C 232.13 223.44 235.07 224.90 237.91 226.42 C 238.74 223.70 239.90 220.90 239.27 218.01 C 238.53 212.65 233.50 208.17 228.00 208.58 C 219.05 207.96 213.64 220.25 219.33 226.81 M 234.25 240.63 C 233.92 244.03 233.57 247.59 235.18 250.76 C 238.21 258.52 245.97 263.04 253.62 265.26 C 264.73 268.17 277.89 265.48 285.60 256.58 C 288.67 252.48 291.47 246.96 289.57 241.80 C 289.08 240.39 288.57 238.99 288.08 237.59 C 284.73 238.27 281.39 238.98 278.14 240.02 C 268.24 242.82 257.56 243.11 247.63 240.33 C 244.45 239.50 241.37 238.05 238.04 237.99 C 236.35 238.00 235.43 239.68 234.25 240.63 M 195.31 252.42 C 193.19 252.84 191.54 254.70 192.11 256.94 C 192.06 261.22 196.76 263.97 200.65 262.86 C 204.51 259.22 200.32 251.93 195.31 252.42 M 326.16 254.78 C 325.55 256.71 323.19 258.93 325.12 260.83 C 326.98 263.62 332.36 261.71 331.61 258.32 C 331.25 255.63 328.16 255.55 326.16 254.78 M 318.39 281.34 C 314.76 282.72 311.35 286.46 312.26 290.59 C 316.69 294.79 326.19 289.99 324.39 283.63 C 323.74 280.81 320.73 280.43 318.39 281.34 M 221.33 291.28 C 219.16 292.16 218.30 295.18 220.17 296.81 C 222.99 300.45 227.88 300.21 232.00 300.04 C 232.21 298.50 233.03 296.95 232.67 295.40 C 230.49 291.51 225.45 290.04 221.33 291.28 M 271.36 311.30 C 268.28 312.08 266.52 316.73 269.18 318.88 C 271.56 321.09 275.51 319.16 276.43 316.38 C 277.80 313.53 274.16 310.25 271.36 311.30 M 298.02 336.75 C 300.18 340.72 305.49 337.95 306.99 334.88 C 308.34 332.46 306.88 329.97 305.87 327.76 C 301.72 328.61 296.32 331.68 298.02 336.75 Z" />
</g>
<g id="#9e6a34ff">
<path fill="#9e6a34" opacity="1.00" d=" M 261.05 152.10 C 262.67 152.09 264.28 152.08 265.91 152.06 C 266.67 154.25 267.92 157.05 265.68 158.86 C 264.12 159.02 262.21 159.25 261.12 157.85 C 259.17 156.37 260.71 153.96 261.05 152.10 Z" />
</g>
<g id="#fefefdff">
<path fill="#fefefd" opacity="1.00" d=" M 136.60 162.53 C 146.82 156.89 158.74 156.52 170.09 155.55 C 178.53 155.44 186.97 153.70 195.39 154.88 C 187.07 165.02 180.39 176.84 177.79 189.80 C 174.33 204.39 174.26 219.60 170.12 234.05 C 165.79 249.23 159.59 264.07 158.32 279.96 C 157.13 291.22 157.99 302.66 160.58 313.68 C 164.90 330.65 174.16 346.35 187.11 358.17 C 176.21 358.20 165.38 356.74 154.57 355.51 C 144.22 354.34 133.71 350.24 126.84 342.13 C 121.12 335.84 118.66 327.47 116.63 319.41 C 112.51 300.58 111.63 281.21 111.51 261.99 C 111.35 238.56 112.04 214.90 116.90 191.90 C 119.32 180.14 125.33 167.98 136.60 162.53 Z" />
</g>
<g id="#a06d37ff">
<path fill="#a06d37" opacity="1.00" d=" M 221.39 169.36 C 224.19 168.29 229.02 169.31 228.94 173.00 C 228.83 176.99 224.58 179.11 221.31 180.32 C 218.88 181.31 214.86 179.93 215.01 176.93 C 214.56 173.11 218.19 170.48 221.39 169.36 Z" />
</g>
<g id="#9f6b36ff">
<path fill="#9f6b36" opacity="1.00" d=" M 294.41 169.36 C 298.56 168.64 303.76 171.99 301.92 176.68 C 299.02 180.26 292.11 177.59 291.97 172.99 C 291.71 171.32 293.00 169.99 294.41 169.36 Z" />
</g>
<g id="#a46f37ff">
<path fill="#a46f37" opacity="1.00" d=" M 260.37 182.23 C 261.91 181.90 263.86 181.79 264.83 183.32 C 265.36 185.19 264.31 186.86 262.70 187.75 C 259.89 188.40 257.55 183.68 260.37 182.23 Z" />
</g>
<g id="#73461dff">
<path fill="#73461d" opacity="1.00" d=" M 286.81 226.83 C 282.31 219.79 287.14 208.56 295.87 208.37 C 304.47 207.82 310.95 218.83 305.79 225.93 C 302.42 225.14 299.56 222.59 295.99 222.61 C 292.45 222.58 289.63 225.01 286.81 226.83 Z" />
<path fill="#73461d" opacity="1.00" d=" M 137.75 454.03 C 161.16 454.80 184.59 454.23 208.00 454.41 C 241.00 454.43 274.00 454.40 307.00 454.40 C 329.75 454.24 352.52 454.77 375.26 454.06 C 370.94 454.60 366.61 455.04 362.27 455.25 C 313.18 455.04 264.09 455.23 215.00 455.16 C 194.91 455.25 174.82 454.99 154.74 455.27 C 149.06 455.10 143.39 454.73 137.75 454.03 Z" />
</g>
<g id="#73471eff">
<path fill="#73471e" opacity="1.00" d=" M 219.33 226.81 C 213.64 220.25 219.05 207.96 228.00 208.58 C 233.50 208.17 238.53 212.65 239.27 218.01 C 239.90 220.90 238.74 223.70 237.91 226.42 C 235.07 224.90 232.13 223.44 229.00 222.66 C 225.25 222.25 222.21 224.84 219.33 226.81 Z" />
</g>
<g id="#76481fff">
<path fill="#76481f" opacity="1.00" d=" M 234.25 240.63 C 235.43 239.68 236.35 238.00 238.04 237.99 C 241.37 238.05 244.45 239.50 247.63 240.33 C 257.56 243.11 268.24 242.82 278.14 240.02 C 281.39 238.98 284.73 238.27 288.08 237.59 C 288.57 238.99 289.08 240.39 289.57 241.80 C 287.19 246.78 284.04 251.48 279.29 254.46 C 269.08 247.25 254.59 247.59 244.26 254.39 C 239.84 250.69 236.65 245.83 234.25 240.63 Z" />
</g>
<g id="#ac783eff">
<path fill="#ac783e" opacity="1.00" d=" M 170.29 263.35 C 172.90 255.43 173.32 246.58 178.22 239.58 C 179.30 251.08 179.37 262.73 182.00 274.02 C 184.66 285.23 189.15 296.00 195.18 305.81 C 201.61 315.15 208.41 324.64 218.03 330.95 C 229.83 338.85 243.12 345.12 257.37 346.62 C 267.58 347.68 278.00 348.16 288.13 346.15 C 301.37 343.16 314.25 337.54 324.56 328.58 C 333.09 321.09 338.98 311.23 344.61 301.51 C 345.16 307.28 342.82 312.68 340.99 318.01 C 337.97 326.61 333.92 334.99 328.12 342.08 C 320.26 350.71 311.55 359.00 300.76 363.82 C 289.84 369.27 277.85 372.16 265.81 373.79 C 255.56 375.03 245.23 373.60 235.12 371.86 C 221.06 369.48 207.58 363.47 196.60 354.34 C 190.61 349.38 184.43 344.24 180.52 337.39 C 176.49 330.49 172.20 323.61 170.04 315.85 C 165.13 298.81 164.89 280.31 170.29 263.35 M 188.62 310.57 C 187.30 313.44 188.68 317.16 191.55 318.49 C 193.44 319.73 195.60 318.54 197.54 318.12 C 197.01 316.16 197.12 313.85 195.64 312.30 C 193.97 310.39 190.99 309.18 188.62 310.57 M 215.06 346.08 C 212.75 348.22 214.33 352.07 217.01 353.06 C 219.10 354.48 221.27 352.65 223.27 352.00 C 222.75 349.93 222.99 347.31 221.06 345.92 C 219.41 344.47 216.51 344.22 215.06 346.08 Z" />
</g>
<g id="#f1d5abff">
<path fill="#f1d5ab" opacity="1.00" d=" M 235.18 250.76 C 233.57 247.59 233.92 244.03 234.25 240.63 C 236.65 245.83 239.84 250.69 244.26 254.39 C 250.91 261.27 261.50 262.15 270.39 260.27 C 274.07 259.64 276.80 257.04 279.29 254.46 C 284.04 251.48 287.19 246.78 289.57 241.80 C 291.47 246.96 288.67 252.48 285.60 256.58 C 277.89 265.48 264.73 268.17 253.62 265.26 C 245.97 263.04 238.21 258.52 235.18 250.76 Z" />
</g>
<g id="#fefef9ff">
<path fill="#fefef9" opacity="1.00" d=" M 244.26 254.39 C 254.59 247.59 269.08 247.25 279.29 254.46 C 276.80 257.04 274.07 259.64 270.39 260.27 C 261.50 262.15 250.91 261.27 244.26 254.39 Z" />
</g>
<g id="#a57137ff">
<path fill="#a57137" opacity="1.00" d=" M 195.31 252.42 C 200.32 251.93 204.51 259.22 200.65 262.86 C 196.76 263.97 192.06 261.22 192.11 256.94 C 191.54 254.70 193.19 252.84 195.31 252.42 Z" />
</g>
<g id="#a87338ff">
<path fill="#a87338" opacity="1.00" d=" M 326.16 254.78 C 328.16 255.55 331.25 255.63 331.61 258.32 C 332.36 261.71 326.98 263.62 325.12 260.83 C 323.19 258.93 325.55 256.71 326.16 254.78 Z" />
</g>
<g id="#ab743aff">
<path fill="#ab743a" opacity="1.00" d=" M 318.39 281.34 C 320.73 280.43 323.74 280.81 324.39 283.63 C 326.19 289.99 316.69 294.79 312.26 290.59 C 311.35 286.46 314.76 282.72 318.39 281.34 Z" />
</g>
<g id="#a97339ff">
<path fill="#a97339" opacity="1.00" d=" M 221.33 291.28 C 225.45 290.04 230.49 291.51 232.67 295.40 C 233.03 296.95 232.21 298.50 232.00 300.04 C 227.88 300.21 222.99 300.45 220.17 296.81 C 218.30 295.18 219.16 292.16 221.33 291.28 Z" />
</g>
<g id="#8e5b29ff">
<path fill="#8e5b29" opacity="1.00" d=" M 188.62 310.57 C 190.99 309.18 193.97 310.39 195.64 312.30 C 197.12 313.85 197.01 316.16 197.54 318.12 C 195.60 318.54 193.44 319.73 191.55 318.49 C 188.68 317.16 187.30 313.44 188.62 310.57 Z" />
</g>
<g id="#a77237ff">
<path fill="#a77237" opacity="1.00" d=" M 271.36 311.30 C 274.16 310.25 277.80 313.53 276.43 316.38 C 275.51 319.16 271.56 321.09 269.18 318.88 C 266.52 316.73 268.28 312.08 271.36 311.30 Z" />
</g>
<g id="#a56f36ff">
<path fill="#a56f36" opacity="1.00" d=" M 298.02 336.75 C 296.32 331.68 301.72 328.61 305.87 327.76 C 306.88 329.97 308.34 332.46 306.99 334.88 C 305.49 337.95 300.18 340.72 298.02 336.75 Z" />
</g>
<g id="#8b5727ff">
<path fill="#8b5727" opacity="1.00" d=" M 215.06 346.08 C 216.51 344.22 219.41 344.47 221.06 345.92 C 222.99 347.31 222.75 349.93 223.27 352.00 C 221.27 352.65 219.10 354.48 217.01 353.06 C 214.33 352.07 212.75 348.22 215.06 346.08 Z" />
</g>
<g id="#b9270eff">
<path fill="#b9270e" opacity="1.00" d=" M 192.96 362.94 C 196.40 364.88 199.92 366.68 203.34 368.65 C 216.03 375.86 230.28 380.36 244.84 381.51 C 261.49 382.86 278.65 381.43 294.34 375.41 C 300.96 372.98 306.94 369.18 313.30 366.18 C 310.31 369.48 306.26 371.42 302.34 373.35 C 290.17 379.56 276.54 381.91 263.07 383.22 C 255.62 384.27 248.15 383.10 240.75 382.25 C 227.52 380.74 214.66 376.38 203.02 369.92 C 199.39 368.03 195.62 366.16 192.96 362.94 Z" />
</g>
<g id="#f9f9fcff">
</g>
<g id="#da8789ff">
<path fill="#da8789" opacity="1.00" d=" M 154.74 455.27 C 174.82 454.99 194.91 455.25 215.00 455.16 C 264.09 455.23 313.18 455.04 362.27 455.25 C 357.52 455.59 352.76 455.91 348.00 455.87 C 293.67 455.95 239.33 455.91 185.00 455.91 C 174.91 455.85 164.80 456.17 154.74 455.27 Z" />
</g>
</svg>
